<?xml version="1.0" encoding="UTF-8" standalone="no"?>
<svg
   xmlns:dc="http://purl.org/dc/elements/1.1/"
   xmlns:cc="http://creativecommons.org/ns#"
   xmlns:rdf="http://www.w3.org/1999/02/22-rdf-syntax-ns#"
   xmlns:svg="http://www.w3.org/2000/svg"
   xmlns="http://www.w3.org/2000/svg"
   id="svg845"
   version="1.1"
   viewBox="0 0 291.29 134.46"
   focusable="false"
   class="ags-SiteHeader-logo">
  <metadata
     id="metadata851">
    <rdf:RDF>
      <cc:Work
         rdf:about="">
        <dc:format>image/svg+xml</dc:format>
        <dc:type
           rdf:resource="http://purl.org/dc/dcmitype/StillImage" />
        <dc:title></dc:title>
      </cc:Work>
    </rdf:RDF>
  </metadata>
  <defs
     id="defs849" />
  <path
     style="fill:#ff9900;fill-opacity:1"
     id="path843"
     transform="translate(-3.69 -3)"
     d="M50.38,59.78c1.09-3.68,1-8.31,1-13.08V12.56c0-1.64.4-6.32-.25-7.29s-3.15-.75-4.9-.75c-5,0-7.22-.69-7.67,4.08l-.19.13c-3.92-3-7.65-5.85-14.84-5.72l-2.39.19a22.76,22.76,0,0,0-4.08,1A19.69,19.69,0,0,0,6.31,15a36.62,36.62,0,0,0-2.08,7.36,23.87,23.87,0,0,0-.38,7.54c.38,2.36.15,4.42.63,6.48,1.74,7.39,5.21,13.15,11.57,15.9a20.21,20.21,0,0,0,11.13,1.39A21,21,0,0,0,34.35,51l2.7-2h.06A22.54,22.54,0,0,1,37,55.75c-1.12,6.39-3,8.54-9.37,9.68a18,18,0,0,1-5.41.13l-5.28-.69L9.2,63a1.69,1.69,0,0,0-1.26,1.07,40.2,40.2,0,0,0,.25,7.8c.89,1.48,3.75,2.07,5.54,2.64,6,1.91,15.69,2.83,22.19.57C43.36,72.52,48.07,67.51,50.38,59.78ZM37.17,22.87V40.41a15.23,15.23,0,0,1-4.33,2.14c-10.59,3.32-14.59-4.12-14.59-13.89a25.33,25.33,0,0,1,1.13-8.87c.93-2.4,2.37-4.5,4.72-5.47.84-.34,1.85-.26,2.76-.63a21.18,21.18,0,0,1,7.8,1.2L37,16C37.57,17,37.17,21.31,37.17,22.87ZM79.74,56.32a25.65,25.65,0,0,0,8.36-3.21l3.33-2.45c.86,1.11.52,2.8,1.63,3.65s9.68,1.16,10.5,0,.44-3.67.44-5.41V26.46c0-4.37.33-9.26-.69-12.7C100.92,5.67,94.08,2.89,83.51,3l-5.66.37a62,62,0,0,0-9.56,2.08c-1.36.47-3.44.82-4,2.07s-.45,7.84.31,8.36c1.12.77,6.5-1,8-1.32,4.34-.94,14.24-1.9,16.66,1.2C91,18,90.71,22.37,90.67,26.39c-1,.24-2.72-.42-3.77-.63l-4.78-.5a18,18,0,0,0-5.28.19c-8.2,1.41-14,4.53-15.9,12.13C58,49.27,68.13,58.77,79.74,56.32ZM77.35,34.63c1.19-.7,2.67-.51,4.15-1.07,3.35,0,6.18.51,9,.63.51,1.12.14,6.83.12,8.55-2.39,3.17-12,6.33-15.27,1.82C73,41.23,74.57,36.26,77.35,34.63Zm38.53,16c0,1.75-.21,3.48.88,4.15.62.37,2.09.19,3,.19,2.09,0,9.28.44,10.06-.57,1-1.25.44-7.82.44-10.12V16.84a19.35,19.35,0,0,1,6.1-2.27c3.38-.79,7.86-.8,9.55,1.45,1.49,2,1.26,5.56,1.26,9.05v19c0,2.58-.58,9.79.88,10.69.9.54,5,.19,6.41.19s5.54.34,6.42-.32c1.18-.89.69-7.28.69-9.56q0-14.13.06-28.29c.48-.79,2.45-1.11,3.4-1.44,4.14-1.46,10.62-2.42,12.63,1.63,1,2.1.69,5.92.69,9V44.81c0,2.24-.5,8.33.44,9.56.55.71,1.83.57,3.08.57,1.88,0,9.33.33,10.19-.32,1.24-.94.75-4.74.75-6.85V28.22c0-8.24.64-15.75-3-20.44-6.52-8.5-23.71-3.95-30,1.45h-.25C157.15,5.18,153,2.9,146.44,3l-2.64.19a30.21,30.21,0,0,0-5.28,1.19,40.58,40.58,0,0,0-6.35,3l-3.08,1.89c-1.12-1.35-.44-3.54-2-4.46-.61-.37-8.67-.47-9.8-.19a2,2,0,0,0-1.07.69c-.66,1-.32,7.59-.32,9.49Zm96.32,2.13c6.17,3.87,17.31,4.71,26.09,2.52,2.21-.55,6.52-1.33,7.29-3.14a48.27,48.27,0,0,0,.12-7.55,1.83,1.83,0,0,0-.81-.94c-.79-.34-2,.24-2.77.44l-6.48,1.19a23.66,23.66,0,0,1-7.16.26,39.37,39.37,0,0,1-5-.7c-4.92-1.49-8.19-5.16-8.24-11.44,1.17-.53,5-.12,6.6-.12h16c2.3,0,6,.47,7.41-.57,1.89-1.41,1.75-10.85,1.14-13.89-2.07-10.3-8.28-16-20.75-15.78l-1.51.06-4.53.63c-4.86,1.22-9.05,3.46-11.75,6.85a25.69,25.69,0,0,0-3.71,6C201.68,22.42,201,33,203.08,40,204.76,45.59,207.71,49.93,212.2,52.73Zm3.7-32.56c1.13-3.25,3-5.62,6.29-6.66L225,13c7.46-.07,9.52,3.79,9.43,11.26-1,.46-4.25.12-5.66.12H215.21C214.8,23.33,215.58,21.1,215.9,20.17Zm77.65,13.2c-3-5.2-9.52-7.23-15.34-9.62-2.76-1.13-7.28-2.08-7.93-5.28-1.37-6.84,12.69-4.86,16.85-3.83,1.16.28,3.85,1.33,4.59.37s.38-3.29.38-4.77c0-1.23.16-2.8-.32-3.59-.72-1.21-2.61-1.55-4.08-2A36.6,36.6,0,0,0,276,3l-3.59.25A29.08,29.08,0,0,0,265.88,5a14.84,14.84,0,0,0-8,7.79c-2.23,5.52-.14,12.84,3.21,15.53,4,3.23,9.43,5.07,14.58,7.17,2.6,1.06,5.55,1.67,6.1,4.78,1.49,8.45-14.51,5.39-19.3,4.15-1-.27-4.16-1.34-5-.88-1.14.65-.69,3.85-.69,5.59,0,1-.15,2.42.25,3.08,1.2,2,7.83,3.26,10.75,3.84,11.6,2.3,21.92-1.62,25.65-8.93C295.3,43.59,295.64,37,293.55,33.37ZM252.81,83l-2.2.13a37.54,37.54,0,0,0-6.35.69,43.91,43.91,0,0,0-13.52,4.72c-1,.61-5,2.58-4.27,4.4.57,1.46,6.36.25,8.23.12,3.7-.25,5.51-.57,9-.56h6.41a35.9,35.9,0,0,1,5.73.37,8.52,8.52,0,0,1,3.45,1.64c1.46,1.25,1.19,5.49.69,7.48a139.33,139.33,0,0,1-5.78,18.86c-.41,1-3.64,7.3-.06,6.54,1.62-.35,4.9-4,5.91-5.22,5-6.39,8.15-13.75,10.5-23,.54-2.15,1.78-10.6.56-12.57C269.11,83.34,258.52,82.89,252.81,83ZM245,101l-5.72,2.51-9.49,3.58c-8.44,3.27-17.84,5.41-27.23,7.74l-11,2.07-12.95,1.7-4.15.31c-1.66.35-3.61.15-5.47.44a83.4,83.4,0,0,1-12.38.51l-9.37.06-6.73-.25-4.33-.25c-1-.2-2.18-.06-3.27-.26l-13.14-1.44c-3.89-.73-8.07-1-11.76-2l-3.08-.51L93.5,112.65c-8.16-2.55-16.27-4.54-23.89-7.48-8.46-3.27-17.29-6.84-24.77-11.26l-7.41-4.27c-1.35-.81-2.44-2-4.59-2-1.6.79-2.09,1.83-1,3.71a12.73,12.73,0,0,0,2.89,2.83l3.4,3.14c4.9,3.9,9.82,7.91,15.15,11.38,4.6,3,9.5,5.55,14.33,8.36l7.23,3.46c4.13,1.82,8.42,3.7,12.76,5.4l11.13,3.71c6,2,12.53,3,19,4.59l13.64,2,4.4.32,7.42.56h2.7a30.39,30.39,0,0,0,7.92.07l2.83-.07,3.46-.06,11.82-.94c5.3-1.18,10.88-1,15.9-2.52l11.57-2.82a195.36,195.36,0,0,0,20.31-7.11,144.13,144.13,0,0,0,23.63-12.57c2.56-1.72,6.18-3,6.86-6.6C250.75,101.43,247.63,100.27,245,101Z"
     fill-rule="evenodd" />
</svg>
