<?xml version="1.0" encoding="utf-8"?>
<!-- Generator: Adobe Illustrator 22.1.0, SVG Export Plug-In . SVG Version: 6.00 Build 0)  -->
<svg version="1.1" id="Layer_1" xmlns="http://www.w3.org/2000/svg" xmlns:xlink="http://www.w3.org/1999/xlink" x="0px" y="0px"
	 viewBox="0 0 512 512" style="enable-background:new 0 0 512 512;" xml:space="preserve">
<g>
	<title>gog-com</title>
	<g>
		<path d="M165,322.1h-52.3c-4.1,0-7.5,3.4-7.5,7.6v37.5c0,4,3.4,7.5,7.5,7.5h52.5v24.8H99.6c-10.5,0-19.1-8.6-19.1-19.3v-63.5
			c0-10.5,8.6-19.1,19.3-19.1H165V322.1z M184,252.8c0,10.9-8.8,19.7-19.7,19.7h-84v-25.4h70.9c4.2,0,7.5-3.3,7.5-7.5v-83.4
			c0-4.2-3.3-7.6-7.5-7.6h-37.9c-4.3-0.1-7.7,3.3-7.7,7.6v37.9c0,4.3,3.4,7.5,7.5,7.5h30.4v25.3H100c-10.8,0-19.7-8.6-19.7-19.5
			v-64.5c0-10.7,8.9-19.5,19.7-19.5h64.2c10.8,0,19.6,8.8,19.6,19.5v109.9L184,252.8z M431.5,399.4h-24.8v-77.3h-17.4
			c-4.1,0-7.5,3.4-7.5,7.6v69.7h-25v-77.3h-17.4c-4.1,0-7.5,3.4-7.5,7.6v69.7h-25v-82.8c0-10.5,8.6-19.1,19.3-19.1h105.2V399.4z
			 M431.7,252.8c0,10.9-8.9,19.7-19.7,19.7h-84v-25.4h70.9c4.1,0,7.5-3.3,7.5-7.5v-83.4c0-4.2-3.4-7.6-7.5-7.6h-38.1
			c-4.2,0-7.5,3.4-7.5,7.6v37.9c0,4.3,3.4,7.5,7.5,7.5h30.4v25.3h-43.4c-10.8,0-19.6-8.6-19.6-19.5v-64.5c0-10.7,8.8-19.5,19.6-19.5
			h64.3c10.9,0,19.7,8.8,19.7,19.5v109.9L431.7,252.8z M288.2,123.4h-64.5c-10.9,0-19.6,8.8-19.6,19.5v64.5
			c0,10.8,8.6,19.5,19.6,19.5h64.5c10.7,0,19.6-8.6,19.6-19.5v-64.5C307.8,132.2,298.9,123.4,288.2,123.4z M282.7,156.3v37.9
			c0,4.2-3.4,7.5-7.5,7.5H237c-4.1,0-7.5-3.3-7.5-7.5v-37.7c0-4.1,3.2-7.5,7.5-7.5h37.7c4.3,0,7.5,3.4,7.5,7.5L282.7,156.3z
			 M267.8,297.5h-63.6c-10.6,0-19.3,8.6-19.3,19.1v63.5c0,10.7,8.6,19.3,19.3,19.3h63.6c10.7,0,19.3-8.6,19.3-19.3v-63.5
			C287.1,306.1,278.5,297.5,267.8,297.5z M262.2,329.7v37.5c0,4.1-3.3,7.5-7.5,7.5v-0.2h-37.3c-4.2,0-7.5-3.4-7.5-7.5v-37.3
			c0-4.1,3.4-7.6,7.5-7.6h37.5c4.1,0,7.5,3.4,7.5,7.6H262.2z M471.4,57.1c-6.1-6.3-14.5-9.7-23.2-9.8H63.8
			C45.6,47.2,30.9,61.9,31,80.1v362.7c-0.1,18.2,14.6,32.9,32.8,32.8h384.4c18.2,0.1,32.9-14.6,32.8-32.8V80.1
			c0-8.9-3.7-17.2-9.6-23.2L471.4,57.1z M471.4,442.8c0.2,12.8-10.3,23.3-23.2,23.2H63.8c-13,0.2-23.5-10.3-23.4-23.2V80.1
			c-0.1-12.8,10.4-23.3,23.2-23.2H448c12.9,0,23.3,10.4,23.3,23.2v362.7H471.4z"/>
	</g>
</g>
</svg>
